<?xml version="1.0" encoding="utf-8"?>
<!-- Generator: Adobe Illustrator 23.0.3, SVG Export Plug-In . SVG Version: 6.00 Build 0)  -->
<svg version="1.1" id="Camada_1" xmlns="http://www.w3.org/2000/svg" xmlns:xlink="http://www.w3.org/1999/xlink" x="0px" y="0px"
	 viewBox="0 0 73.5 26.6" style="enable-background:new 0 0 73.5 26.6;" xml:space="preserve">
<style type="text/css">
	.st0{fill:#fff;}
</style>
<polygon class="st0" points="21.7,10.7 25,12.5 25.1,16.4 21.7,18.3 18.4,16.4 18.4,12.6 "/>
<polygon class="st0" points="18.1,26.6 22,24.3 22,19.7 18,17.4 14,19.7 14.1,24.3 "/>
<polygon class="st0" points="10.8,18.6 13.4,20 13.4,23 10.8,24.5 8.3,23 8.3,20.1 "/>
<polygon class="st0" points="4.6,10.7 8.5,12.9 8.5,17.5 4.6,19.8 0.7,17.5 0.6,13 "/>
<polygon class="st0" points="8.6,4.6 11.8,6.4 11.8,10.1 8.6,11.9 5.4,10.1 5.4,6.4 "/>
<polygon class="st0" points="18.3,11.9 23.4,8.9 23.4,2.9 18.2,0 13.1,3 13.1,9 "/>
<g>
	<path class="st0" d="M32.1,4.6v9.9c0,3,1.1,4.5,3.1,4.5c2,0,3.2-1.4,3.2-4.5V4.6h3.9v9.7c0,5.3-2.7,7.8-7.2,7.8
		c-4.3,0-6.9-2.4-6.9-7.9V4.6H32.1z"/>
	<path class="st0" d="M45.7,4.6h10.5v3.2h-6.6v3.9h6.2v3.2h-6.2v6.9h-3.9V4.6z"/>
	<path class="st0" d="M73.5,21c-1.2,0.4-3.5,1-5.8,1c-3.1,0-5.4-0.8-7-2.3c-1.6-1.5-2.4-3.8-2.4-6.3c0-5.7,4.2-9,9.8-9
		c2.2,0,3.9,0.4,4.8,0.8l-0.8,3.1c-0.9-0.4-2.1-0.7-4-0.7c-3.2,0-5.7,1.8-5.7,5.6c0,3.6,2.2,5.6,5.4,5.6c0.9,0,1.6-0.1,1.9-0.2V15
		h-2.7v-3h6.4V21z"/>
</g>
</svg>
